<?xml version="1.0" encoding="utf-8"?>
<svg viewBox="-0.335 -1.646 171.581 18.078" width="171.581px" height="18.078px" xmlns="http://www.w3.org/2000/svg">
  <g fill="none" fill-rule="evenodd">
    <g fill="#F3603C" style="" transform="matrix(0, -0.918298, 0.895623, 0, -0.05331, 14.378759)">
      <path d="M2.786 10.286c1.538 0 2.785 1.279 2.785 2.857C5.571 14.72 4.324 16 2.786 16 1.247 16 0 14.72 0 13.143c0-1.578 1.247-2.857 2.786-2.857zM2.786 0C4.324 0 5.57 1.28 5.57 2.857c0 1.578-1.247 2.857-2.785 2.857C1.247 5.714 0 4.435 0 2.857 0 1.28 1.247 0 2.786 0zm10.028 0C14.353 0 15.6 1.28 15.6 2.857c0 1.578-1.247 2.857-2.786 2.857-1.538 0-2.785-1.279-2.785-2.857C10.029 1.28 11.276 0 12.814 0z"/>
      <ellipse cx="12.814" cy="13.257" opacity=".5" rx="2.786" ry="2.857"/>
    </g>
    <path d="M 38.36107486964844 33.89360800277344 Q 38.49029402964844 33.89360800277344 38.58825048964844 33.94467041277344 Q 38.68620694964844 33.99573282277344 38.74247980964844 34.077015842773434 L 38.74247980964844 33.912365622773436 L 39.03634918964844 33.912365622773436 L 39.03634918964844 35.07533806277344 Q 39.03634918964844 35.23581992277344 38.97173960964844 35.36191281277344 Q 38.907130029648435 35.488005702773435 38.77791086964844 35.56199409277344 Q 38.64869170964844 35.635982482773436 38.46528386964844 35.635982482773436 Q 38.21935062964844 35.635982482773436 38.06199503964844 35.52135258277344 Q 37.904639449648435 35.406722682773434 37.883797649648436 35.20872558277344 L 38.17349866964844 35.20872558277344 Q 38.196424649648435 35.287924422773436 38.272497219648436 35.334818472773435 Q 38.34856978964844 35.38171252277344 38.456947149648435 35.38171252277344 Q 38.584082129648436 35.38171252277344 38.66328096964844 35.30563995277344 Q 38.74247980964844 35.22956738277344 38.74247980964844 35.07533806277344 L 38.74247980964844 34.89609858277344 Q 38.68620694964844 34.977381602773434 38.58720839964844 35.03157028277344 Q 38.488209849648435 35.08575896277344 38.36107486964844 35.08575896277344 Q 38.21518226964844 35.08575896277344 38.094299829648435 35.01072848277344 Q 37.97341738964844 34.935698002773435 37.90359735964844 34.79918421277344 Q 37.833777329648434 34.66267042277344 37.833777329648434 34.485515122773435 Q 37.833777329648434 34.31044400277344 37.90359735964844 34.17497230277344 Q 37.97341738964844 34.03950060277344 38.093257739648436 33.96655430277344 Q 38.21309808964844 33.89360800277344 38.36107486964844 33.89360800277344 Z M 38.74247980964844 34.48968348277344 Q 38.74247980964844 34.383390302773435 38.70079620964844 34.307317732773434 Q 38.65911260964844 34.23124516277344 38.58825048964844 34.19060365277344 Q 38.51738836964844 34.14996214277344 38.436105349648436 34.14996214277344 Q 38.354822329648435 34.14996214277344 38.28604438964844 34.189561562773434 Q 38.217266449648434 34.229160982773436 38.17454075964844 34.30523355277344 Q 38.13181506964844 34.38130612277344 38.13181506964844 34.485515122773435 Q 38.13181506964844 34.58972412277344 38.17454075964844 34.66788087277344 Q 38.217266449648434 34.746037622773436 38.28708647964844 34.787721222773435 Q 38.35690650964844 34.82940482277344 38.436105349648436 34.82940482277344 Q 38.51738836964844 34.82940482277344 38.58825048964844 34.78876331277344 Q 38.65911260964844 34.74812180277344 38.70079620964844 34.67204923277344 Q 38.74247980964844 34.59597666277344 38.74247980964844 34.48968348277344 Z M 39.870797586103514 33.89569218277344 Q 40.002100926103516 33.89569218277344 40.104225746103516 33.953007132773436 Q 40.20635056610352 34.010322082773435 40.263665516103515 34.121825712773436 Q 40.320980466103514 34.23332934277344 40.320980466103514 34.38964284277344 L 40.320980466103514 35.06700134277344 L 40.029195266103514 35.06700134277344 L 40.029195266103514 34.429242262773435 Q 40.029195266103514 34.291686382773435 39.96041732610352 34.21769799277344 Q 39.89163938610351 34.143709602773434 39.772841126103515 34.143709602773434 Q 39.65195868610351 34.143709602773434 39.58213865610352 34.21769799277344 Q 39.512318626103514 34.291686382773435 39.512318626103514 34.429242262773435 L 39.512318626103514 35.06700134277344 L 39.220533426103515 35.06700134277344 L 39.220533426103515 33.524708142773434 L 39.512318626103514 33.524708142773434 L 39.512318626103514 34.056174042773435 Q 39.568591486103514 33.98114356277344 39.66237958610352 33.938417872773435 Q 39.75616768610352 33.89569218277344 39.870797586103514 33.89569218277344 Z M 41.57137483459961 34.464673322773436 Q 41.57137483459961 34.527198722773434 41.56303811459961 34.577219042773436 L 40.71894521459961 34.577219042773436 Q 40.72936611459961 34.70226984277344 40.806480774599606 34.77313196277344 Q 40.88359543459961 34.843994082773435 40.99614115459961 34.843994082773435 Q 41.15870719459961 34.843994082773435 41.22748513459961 34.70435402277344 L 41.54219631459961 34.70435402277344 Q 41.492175994599606 34.87108842277344 41.35045175459961 34.97842369277344 Q 41.20872751459961 35.08575896277344 41.00239369459961 35.08575896277344 Q 40.83565929459961 35.08575896277344 40.70331386459961 35.011770572773436 Q 40.57096843459961 34.93778218277344 40.49698004459961 34.802310482773436 Q 40.422991654599606 34.66683878277344 40.422991654599606 34.48968348277344 Q 40.422991654599606 34.31044400277344 40.49593795459961 34.17497230277344 Q 40.56888425459961 34.03950060277344 40.70018759459961 33.96655430277344 Q 40.83149093459961 33.89360800277344 41.00239369459961 33.89360800277344 Q 41.16704391459961 33.89360800277344 41.29730516459961 33.964470122773434 Q 41.42756641459961 34.035332242773435 41.49947062459961 34.16559349277344 Q 41.57137483459961 34.295854742773436 41.57137483459961 34.464673322773436 Z M 41.26916873459961 34.38130612277344 Q 41.267084554599606 34.26876040277344 41.18788571459961 34.20102455277344 Q 41.10868687459961 34.133288702773434 40.99405697459961 34.133288702773434 Q 40.88567961459961 34.133288702773434 40.811691224599606 34.198940372773436 Q 40.73770283459961 34.26459204277344 40.72102939459961 34.38130612277344 Z M 42.19632688066406 35.08575896277344 Q 42.029592480664064 35.08575896277344 41.896204960664065 35.011770572773436 Q 41.762817440664065 34.93778218277344 41.686744870664064 34.802310482773436 Q 41.61067230066406 34.66683878277344 41.61067230066406 34.48968348277344 Q 41.61067230066406 34.312528182773434 41.68882905066406 34.17705648277344 Q 41.76698580066406 34.04158478277344 41.90245750066406 33.96759639277344 Q 42.03792920066406 33.89360800277344 42.20466360066406 33.89360800277344 Q 42.371398000664065 33.89360800277344 42.50686970066406 33.96759639277344 Q 42.642341400664066 34.04158478277344 42.72049815066406 34.17705648277344 Q 42.79865490066406 34.312528182773434 42.79865490066406 34.48968348277344 Q 42.79865490066406 34.66683878277344 42.71841397066406 34.802310482773436 Q 42.638173040664064 34.93778218277344 42.50165925066406 35.011770572773436 Q 42.36514546066406 35.08575896277344 42.19632688066406 35.08575896277344 Z M 42.19632688066406 34.83148900277344 Q 42.275525720664064 34.83148900277344 42.345345750664066 34.792931672773435 Q 42.41516578066406 34.75437434277344 42.45684938066406 34.67725968277344 Q 42.49853298066406 34.60014502277344 42.49853298066406 34.48968348277344 Q 42.49853298066406 34.32503326277344 42.412039510664066 34.23645561277344 Q 42.325546040664065 34.147877962773435 42.20049524066406 34.147877962773435 Q 42.075444440664064 34.147877962773435 41.99103515066406 34.23645561277344 Q 41.906625860664064 34.32503326277344 41.906625860664064 34.48968348277344 Q 41.906625860664064 34.654333702773435 41.988950970664064 34.74291135277344 Q 42.07127608066406 34.83148900277344 42.19632688066406 34.83148900277344 Z M 43.20424367493164 34.091605102773435 Q 43.26051653493164 33.999901182773435 43.35117836493164 33.947796682773436 Q 43.44184019493164 33.89569218277344 43.55855427493164 33.89569218277344 L 43.55855427493164 34.20206664277344 L 43.48143961493164 34.20206664277344 Q 43.34388373493164 34.20206664277344 43.27406370493164 34.26667622277344 Q 43.20424367493164 34.331285802773436 43.20424367493164 34.49176766277344 L 43.20424367493164 35.06700134277344 L 42.91245847493164 35.06700134277344 L 42.91245847493164 33.912365622773436 L 43.20424367493164 33.912365622773436 L 43.20424367493164 34.091605102773435 Z M 44.107077066914066 33.89360800277344 Q 44.236296226914064 33.89360800277344 44.33425268691406 33.94467041277344 Q 44.43220914691406 33.99573282277344 44.48848200691406 34.077015842773434 L 44.48848200691406 33.912365622773436 L 44.782351386914065 33.912365622773436 L 44.782351386914065 35.07533806277344 Q 44.782351386914065 35.23581992277344 44.71774180691406 35.36191281277344 Q 44.65313222691406 35.488005702773435 44.52391306691406 35.56199409277344 Q 44.394693906914064 35.635982482773436 44.21128606691406 35.635982482773436 Q 43.965352826914064 35.635982482773436 43.80799723691406 35.52135258277344 Q 43.65064164691406 35.406722682773434 43.62979984691406 35.20872558277344 L 43.91950086691406 35.20872558277344 Q 43.94242684691406 35.287924422773436 44.01849941691406 35.334818472773435 Q 44.09457198691406 35.38171252277344 44.20294934691406 35.38171252277344 Q 44.33008432691406 35.38171252277344 44.409283166914065 35.30563995277344 Q 44.48848200691406 35.22956738277344 44.48848200691406 35.07533806277344 L 44.48848200691406 34.89609858277344 Q 44.43220914691406 34.977381602773434 44.333210596914064 35.03157028277344 Q 44.23421204691406 35.08575896277344 44.107077066914066 35.08575896277344 Q 43.96118446691406 35.08575896277344 43.84030202691406 35.01072848277344 Q 43.719419586914064 34.935698002773435 43.64959955691406 34.79918421277344 Q 43.57977952691406 34.66267042277344 43.57977952691406 34.485515122773435 Q 43.57977952691406 34.31044400277344 43.64959955691406 34.17497230277344 Q 43.719419586914064 34.03950060277344 43.83925993691406 33.96655430277344 Q 43.959100286914065 33.89360800277344 44.107077066914066 33.89360800277344 Z M 44.48848200691406 34.48968348277344 Q 44.48848200691406 34.383390302773435 44.44679840691406 34.307317732773434 Q 44.405114806914064 34.23124516277344 44.33425268691406 34.19060365277344 Q 44.26339056691406 34.14996214277344 44.18210754691406 34.14996214277344 Q 44.10082452691406 34.14996214277344 44.03204658691406 34.189561562773434 Q 43.96326864691406 34.229160982773436 43.92054295691406 34.30523355277344 Q 43.877817266914064 34.38130612277344 43.877817266914064 34.485515122773435 Q 43.877817266914064 34.58972412277344 43.92054295691406 34.66788087277344 Q 43.96326864691406 34.746037622773436 44.03308867691406 34.787721222773435 Q 44.102908706914064 34.82940482277344 44.18210754691406 34.82940482277344 Q 44.26339056691406 34.82940482277344 44.33425268691406 34.78876331277344 Q 44.405114806914064 34.74812180277344 44.44679840691406 34.67204923277344 Q 44.48848200691406 34.59597666277344 44.48848200691406 34.48968348277344 Z M 45.618600320478514 33.89569218277344 Q 45.749903660478516 33.89569218277344 45.852028480478516 33.953007132773436 Q 45.95415330047852 34.010322082773435 46.011468250478515 34.121825712773436 Q 46.068783200478514 34.23332934277344 46.068783200478514 34.38964284277344 L 46.068783200478514 35.06700134277344 L 45.776998000478514 35.06700134277344 L 45.776998000478514 34.429242262773435 Q 45.776998000478514 34.291686382773435 45.70822006047852 34.21769799277344 Q 45.63944212047851 34.143709602773434 45.520643860478515 34.143709602773434 Q 45.39976142047851 34.143709602773434 45.32994139047852 34.21769799277344 Q 45.260121360478514 34.291686382773435 45.260121360478514 34.429242262773435 L 45.260121360478514 35.06700134277344 L 44.968336160478515 35.06700134277344 L 44.968336160478515 33.524708142773434 L 45.260121360478514 33.524708142773434 L 45.260121360478514 34.056174042773435 Q 45.316394220478514 33.98114356277344 45.41018232047852 33.938417872773435 Q 45.50397042047852 33.89569218277344 45.618600320478514 33.89569218277344 Z M 47.31917756897461 34.464673322773436 Q 47.31917756897461 34.527198722773434 47.31084084897461 34.577219042773436 L 46.46674794897461 34.577219042773436 Q 46.47716884897461 34.70226984277344 46.554283508974606 34.77313196277344 Q 46.63139816897461 34.843994082773435 46.74394388897461 34.843994082773435 Q 46.90650992897461 34.843994082773435 46.97528786897461 34.70435402277344 L 47.28999904897461 34.70435402277344 Q 47.239978728974606 34.87108842277344 47.09825448897461 34.97842369277344 Q 46.95653024897461 35.08575896277344 46.75019642897461 35.08575896277344 Q 46.58346202897461 35.08575896277344 46.45111659897461 35.011770572773436 Q 46.31877116897461 34.93778218277344 46.24478277897461 34.802310482773436 Q 46.170794388974606 34.66683878277344 46.170794388974606 34.48968348277344 Q 46.170794388974606 34.31044400277344 46.24374068897461 34.17497230277344 Q 46.31668698897461 34.03950060277344 46.44799032897461 33.96655430277344 Q 46.57929366897461 33.89360800277344 46.75019642897461 33.89360800277344 Q 46.91484664897461 33.89360800277344 47.04510789897461 33.964470122773434 Q 47.17536914897461 34.035332242773435 47.24727335897461 34.16559349277344 Q 47.31917756897461 34.295854742773436 47.31917756897461 34.464673322773436 Z M 47.01697146897461 34.38130612277344 Q 47.014887288974606 34.26876040277344 46.93568844897461 34.20102455277344 Q 46.85648960897461 34.133288702773434 46.74185970897461 34.133288702773434 Q 46.63348234897461 34.133288702773434 46.559493958974606 34.198940372773436 Q 46.48550556897461 34.26459204277344 46.46883212897461 34.38130612277344 Z M 47.56064049503906 35.08159060277344 Q 47.48144165503906 35.08159060277344 47.43037924503906 35.032612372773436 Q 47.37931683503906 34.98363414277344 47.37931683503906 34.910687842773434 Q 47.37931683503906 34.837741542773436 47.43037924503906 34.78876331277344 Q 47.48144165503906 34.73978508277344 47.56064049503906 34.73978508277344 Q 47.63775515503906 34.73978508277344 47.68777547503906 34.78876331277344 Q 47.73779579503906 34.837741542773436 47.73779579503906 34.910687842773434 Q 47.73779579503906 34.98363414277344 47.68777547503906 35.032612372773436 Q 47.63775515503906 35.08159060277344 47.56064049503906 35.08159060277344 Z M 48.21258707201172 34.15204632277344 L 48.21258707201172 34.710606562773435 Q 48.21258707201172 34.76896360277344 48.24072350201172 34.79501585277344 Q 48.26885993201172 34.82106810277344 48.33555369201172 34.82106810277344 L 48.47102539201172 34.82106810277344 L 48.47102539201172 35.06700134277344 L 48.28761755201172 35.06700134277344 Q 47.91871769201172 35.06700134277344 47.91871769201172 34.70852238277344 L 47.91871769201172 34.15204632277344 L 47.78116181201172 34.15204632277344 L 47.78116181201172 33.912365622773436 L 47.91871769201172 33.912365622773436 L 47.91871769201172 33.626832962773435 L 48.21258707201172 33.626832962773435 L 48.21258707201172 33.912365622773436 L 48.47102539201172 33.912365622773436 L 48.47102539201172 34.15204632277344 Z M 48.50594987603515 34.485515122773435 Q 48.50594987603515 34.31044400277344 48.575769906035156 34.17497230277344 Q 48.64558993603516 34.03950060277344 48.765430286035155 33.96655430277344 Q 48.88527063603516 33.89360800277344 49.03324741603516 33.89360800277344 Q 49.16246657603516 33.89360800277344 49.25938094603516 33.94571250277344 Q 49.35629531603516 33.99781700277344 49.414652356035155 34.077015842773434 L 49.414652356035155 33.912365622773436 L 49.70852173603516 33.912365622773436 L 49.70852173603516 35.06700134277344 L 49.414652356035155 35.06700134277344 L 49.414652356035155 34.89818276277344 Q 49.358379496035155 34.97946578277344 49.25938094603516 35.032612372773436 Q 49.16038239603515 35.08575896277344 49.031163236035155 35.08575896277344 Q 48.88527063603516 35.08575896277344 48.765430286035155 35.01072848277344 Q 48.64558993603516 34.935698002773435 48.575769906035156 34.79918421277344 Q 48.50594987603515 34.66267042277344 48.50594987603515 34.485515122773435 Z M 49.414652356035155 34.48968348277344 Q 49.414652356035155 34.383390302773435 49.372968756035156 34.307317732773434 Q 49.33128515603516 34.23124516277344 49.26042303603516 34.19060365277344 Q 49.189560916035155 34.14996214277344 49.108277896035155 34.14996214277344 Q 49.026994876035154 34.14996214277344 48.95821693603516 34.189561562773434 Q 48.88943899603515 34.229160982773436 48.846713306035156 34.30523355277344 Q 48.80398761603516 34.38130612277344 48.80398761603516 34.485515122773435 Q 48.80398761603516 34.58972412277344 48.846713306035156 34.66788087277344 Q 48.88943899603515 34.746037622773436 48.959259026035156 34.787721222773435 Q 49.02907905603516 34.82940482277344 49.108277896035155 34.82940482277344 Q 49.189560916035155 34.82940482277344 49.26042303603516 34.78876331277344 Q 49.33128515603516 34.74812180277344 49.372968756035156 34.67204923277344 Q 49.414652356035155 34.59597666277344 49.414652356035155 34.48968348277344 Z M 50.18629170959961 34.091605102773435 Q 50.24256456959961 33.999901182773435 50.33322639959961 33.947796682773436 Q 50.42388822959961 33.89569218277344 50.540602309599606 33.89569218277344 L 50.540602309599606 34.20206664277344 L 50.46348764959961 34.20206664277344 Q 50.325931769599606 34.20206664277344 50.25611173959961 34.26667622277344 Q 50.18629170959961 34.331285802773436 50.18629170959961 34.49176766277344 L 50.18629170959961 35.06700134277344 L 49.89450650959961 35.06700134277344 L 49.89450650959961 33.912365622773436 L 50.18629170959961 33.912365622773436 L 50.18629170959961 34.091605102773435 Z M 50.56002320977539 34.48968348277344 Q 50.56002320977539 34.31044400277344 50.63296950977539 34.17601439277344 Q 50.70591580977539 34.04158478277344 50.83513496977539 33.96759639277344 Q 50.964354129775394 33.89360800277344 51.13108852977539 33.89360800277344 Q 51.34575906977539 33.89360800277344 51.486441219775394 34.00094327277344 Q 51.62712336977539 34.10827854277344 51.67505950977539 34.302107282773434 L 51.36034832977539 34.302107282773434 Q 51.33533816977539 34.22707680277344 51.27593903977539 34.184351112773435 Q 51.21653990977539 34.14162542277344 51.12900434977539 34.14162542277344 Q 51.00395354977539 34.14162542277344 50.93100724977539 34.23228725277344 Q 50.85806094977539 34.32294908277344 50.85806094977539 34.48968348277344 Q 50.85806094977539 34.654333702773435 50.93100724977539 34.74499553277344 Q 51.00395354977539 34.83565736277344 51.12900434977539 34.83565736277344 Q 51.30615964977539 34.83565736277344 51.36034832977539 34.67725968277344 L 51.67505950977539 34.67725968277344 Q 51.62712336977539 34.864835882773434 51.48539912977539 34.97529742277344 Q 51.34367488977539 35.08575896277344 51.13108852977539 35.08575896277344 Q 50.964354129775394 35.08575896277344 50.83513496977539 35.011770572773436 Q 50.70591580977539 34.93778218277344 50.63296950977539 34.803352572773434 Q 50.56002320977539 34.668922962773436 50.56002320977539 34.48968348277344 Z M 52.86337465149414 34.464673322773436 Q 52.86337465149414 34.527198722773434 52.85503793149414 34.577219042773436 L 52.01094503149414 34.577219042773436 Q 52.02136593149414 34.70226984277344 52.09848059149414 34.77313196277344 Q 52.175595251494144 34.843994082773435 52.288140971494144 34.843994082773435 Q 52.45070701149414 34.843994082773435 52.51948495149414 34.70435402277344 L 52.83419613149414 34.70435402277344 Q 52.78417581149414 34.87108842277344 52.64245157149414 34.97842369277344 Q 52.50072733149414 35.08575896277344 52.29439351149414 35.08575896277344 Q 52.12765911149414 35.08575896277344 51.99531368149414 35.011770572773436 Q 51.86296825149414 34.93778218277344 51.78897986149414 34.802310482773436 Q 51.71499147149414 34.66683878277344 51.71499147149414 34.48968348277344 Q 51.71499147149414 34.31044400277344 51.78793777149414 34.17497230277344 Q 51.86088407149414 34.03950060277344 51.99218741149414 33.96655430277344 Q 52.12349075149414 33.89360800277344 52.29439351149414 33.89360800277344 Q 52.45904373149414 33.89360800277344 52.58930498149414 33.964470122773434 Q 52.71956623149414 34.035332242773435 52.79147044149414 34.16559349277344 Q 52.86337465149414 34.295854742773436 52.86337465149414 34.464673322773436 Z M 52.56116855149414 34.38130612277344 Q 52.55908437149414 34.26876040277344 52.47988553149414 34.20102455277344 Q 52.400686691494144 34.133288702773434 52.28605679149414 34.133288702773434 Q 52.17767943149414 34.133288702773434 52.10369104149414 34.198940372773436 Q 52.02970265149414 34.26459204277344 52.01302921149414 34.38130612277344 Z M 52.90058793755859 34.485515122773435 Q 52.90058793755859 34.31044400277344 52.97040796755859 34.17497230277344 Q 53.040227997558596 34.03950060277344 53.16006834755859 33.96655430277344 Q 53.2799086975586 33.89360800277344 53.4278854775586 33.89360800277344 Q 53.557104637558595 33.89360800277344 53.654019007558595 33.94571250277344 Q 53.750933377558596 33.99781700277344 53.80929041755859 34.077015842773434 L 53.80929041755859 33.912365622773436 L 54.1031597975586 33.912365622773436 L 54.1031597975586 35.06700134277344 L 53.80929041755859 35.06700134277344 L 53.80929041755859 34.89818276277344 Q 53.75301755755859 34.97946578277344 53.654019007558595 35.032612372773436 Q 53.55502045755859 35.08575896277344 53.42580129755859 35.08575896277344 Q 53.2799086975586 35.08575896277344 53.16006834755859 35.01072848277344 Q 53.040227997558596 34.935698002773435 52.97040796755859 34.79918421277344 Q 52.90058793755859 34.66267042277344 52.90058793755859 34.485515122773435 Z M 53.80929041755859 34.48968348277344 Q 53.80929041755859 34.383390302773435 53.767606817558594 34.307317732773434 Q 53.725923217558595 34.23124516277344 53.655061097558594 34.19060365277344 Q 53.58419897755859 34.14996214277344 53.50291595755859 34.14996214277344 Q 53.42163293755859 34.14996214277344 53.352854997558595 34.189561562773434 Q 53.28407705755859 34.229160982773436 53.24135136755859 34.30523355277344 Q 53.198625677558596 34.38130612277344 53.198625677558596 34.485515122773435 Q 53.198625677558596 34.58972412277344 53.24135136755859 34.66788087277344 Q 53.28407705755859 34.746037622773436 53.35389708755859 34.787721222773435 Q 53.423717117558596 34.82940482277344 53.50291595755859 34.82940482277344 Q 53.58419897755859 34.82940482277344 53.655061097558594 34.78876331277344 Q 53.725923217558595 34.74812180277344 53.767606817558594 34.67204923277344 Q 53.80929041755859 34.59597666277344 53.80929041755859 34.48968348277344 Z" transform="matrix(9.172045707702637, 0, 0, 8.15670108795166, -326.764892578125, -274.72271728515625)" style="fill: rgb(46, 50, 76); line-height: 3.727px; paint-order: fill; text-transform: lowercase; white-space: pre;"/>
  </g>
</svg>