<?xml version="1.0" encoding="utf-8"?>
<svg viewBox="-0.784 -1.818 172.801 18.154" width="172.801px" height="18.154px" xmlns="http://www.w3.org/2000/svg">
  <g fill="none" fill-rule="evenodd">
    <g fill="#F3603C" style="" transform="matrix(0, -0.918298, 0.895623, 0, -0.05331, 14.378759)">
      <path d="M2.786 10.286c1.538 0 2.785 1.279 2.785 2.857C5.571 14.72 4.324 16 2.786 16 1.247 16 0 14.72 0 13.143c0-1.578 1.247-2.857 2.786-2.857zM2.786 0C4.324 0 5.57 1.28 5.57 2.857c0 1.578-1.247 2.857-2.785 2.857C1.247 5.714 0 4.435 0 2.857 0 1.28 1.247 0 2.786 0zm10.028 0C14.353 0 15.6 1.28 15.6 2.857c0 1.578-1.247 2.857-2.786 2.857-1.538 0-2.785-1.279-2.785-2.857C10.029 1.28 11.276 0 12.814 0z"/>
      <ellipse cx="12.814" cy="13.257" opacity=".5" rx="2.786" ry="2.857"/>
    </g>
    <path d="M 38.36107486964844 33.89360800277344 Q 38.49029402964844 33.89360800277344 38.58825048964844 33.94467041277344 Q 38.68620694964844 33.99573282277344 38.74247980964844 34.077015842773434 L 38.74247980964844 33.912365622773436 L 39.03634918964844 33.912365622773436 L 39.03634918964844 35.07533806277344 Q 39.03634918964844 35.23581992277344 38.97173960964844 35.36191281277344 Q 38.907130029648435 35.488005702773435 38.77791086964844 35.56199409277344 Q 38.64869170964844 35.635982482773436 38.46528386964844 35.635982482773436 Q 38.21935062964844 35.635982482773436 38.06199503964844 35.52135258277344 Q 37.904639449648435 35.406722682773434 37.883797649648436 35.20872558277344 L 38.17349866964844 35.20872558277344 Q 38.196424649648435 35.287924422773436 38.272497219648436 35.334818472773435 Q 38.34856978964844 35.38171252277344 38.456947149648435 35.38171252277344 Q 38.584082129648436 35.38171252277344 38.66328096964844 35.30563995277344 Q 38.74247980964844 35.22956738277344 38.74247980964844 35.07533806277344 L 38.74247980964844 34.89609858277344 Q 38.68620694964844 34.977381602773434 38.58720839964844 35.03157028277344 Q 38.488209849648435 35.08575896277344 38.36107486964844 35.08575896277344 Q 38.21518226964844 35.08575896277344 38.094299829648435 35.01072848277344 Q 37.97341738964844 34.935698002773435 37.90359735964844 34.79918421277344 Q 37.833777329648434 34.66267042277344 37.833777329648434 34.485515122773435 Q 37.833777329648434 34.31044400277344 37.90359735964844 34.17497230277344 Q 37.97341738964844 34.03950060277344 38.093257739648436 33.96655430277344 Q 38.21309808964844 33.89360800277344 38.36107486964844 33.89360800277344 Z M 38.74247980964844 34.48968348277344 Q 38.74247980964844 34.383390302773435 38.70079620964844 34.307317732773434 Q 38.65911260964844 34.23124516277344 38.58825048964844 34.19060365277344 Q 38.51738836964844 34.14996214277344 38.436105349648436 34.14996214277344 Q 38.354822329648435 34.14996214277344 38.28604438964844 34.189561562773434 Q 38.217266449648434 34.229160982773436 38.17454075964844 34.30523355277344 Q 38.13181506964844 34.38130612277344 38.13181506964844 34.485515122773435 Q 38.13181506964844 34.58972412277344 38.17454075964844 34.66788087277344 Q 38.217266449648434 34.746037622773436 38.28708647964844 34.787721222773435 Q 38.35690650964844 34.82940482277344 38.436105349648436 34.82940482277344 Q 38.51738836964844 34.82940482277344 38.58825048964844 34.78876331277344 Q 38.65911260964844 34.74812180277344 38.70079620964844 34.67204923277344 Q 38.74247980964844 34.59597666277344 38.74247980964844 34.48968348277344 Z M 39.87063736881836 33.89569218277344 Q 40.00194070881836 33.89569218277344 40.10406552881836 33.953007132773436 Q 40.20619034881836 34.010322082773435 40.26350529881836 34.121825712773436 Q 40.32082024881836 34.23332934277344 40.32082024881836 34.38964284277344 L 40.32082024881836 35.06700134277344 L 40.02903504881836 35.06700134277344 L 40.02903504881836 34.429242262773435 Q 40.02903504881836 34.291686382773435 39.96025710881836 34.21769799277344 Q 39.89147916881836 34.143709602773434 39.77268090881836 34.143709602773434 Q 39.651798468818356 34.143709602773434 39.58197843881836 34.21769799277344 Q 39.51215840881836 34.291686382773435 39.51215840881836 34.429242262773435 L 39.51215840881836 35.06700134277344 L 39.22037320881836 35.06700134277344 L 39.22037320881836 33.524708142773434 L 39.51215840881836 33.524708142773434 L 39.51215840881836 34.056174042773435 Q 39.56843126881836 33.98114356277344 39.66221936881836 33.938417872773435 Q 39.75600746881836 33.89569218277344 39.87063736881836 33.89569218277344 Z M 41.57106202942383 34.464673322773436 Q 41.57106202942383 34.527198722773434 41.562725309423826 34.577219042773436 L 40.718632409423826 34.577219042773436 Q 40.729053309423826 34.70226984277344 40.806167969423825 34.77313196277344 Q 40.88328262942383 34.843994082773435 40.99582834942383 34.843994082773435 Q 41.158394389423826 34.843994082773435 41.22717232942383 34.70435402277344 L 41.541883509423826 34.70435402277344 Q 41.491863189423825 34.87108842277344 41.35013894942383 34.97842369277344 Q 41.20841470942383 35.08575896277344 41.00208088942383 35.08575896277344 Q 40.83534648942383 35.08575896277344 40.703001059423826 35.011770572773436 Q 40.570655629423825 34.93778218277344 40.49666723942383 34.802310482773436 Q 40.422678849423825 34.66683878277344 40.422678849423825 34.48968348277344 Q 40.422678849423825 34.31044400277344 40.49562514942383 34.17497230277344 Q 40.56857144942383 34.03950060277344 40.69987478942383 33.96655430277344 Q 40.831178129423826 33.89360800277344 41.00208088942383 33.89360800277344 Q 41.16673110942383 33.89360800277344 41.296992359423825 33.964470122773434 Q 41.42725360942383 34.035332242773435 41.49915781942383 34.16559349277344 Q 41.57106202942383 34.295854742773436 41.57106202942383 34.464673322773436 Z M 41.26885592942383 34.38130612277344 Q 41.266771749423825 34.26876040277344 41.18757290942383 34.20102455277344 Q 41.10837406942383 34.133288702773434 40.99374416942383 34.133288702773434 Q 40.88536680942383 34.133288702773434 40.811378419423825 34.198940372773436 Q 40.73739002942383 34.26459204277344 40.72071658942383 34.38130612277344 Z M 42.195869116992185 35.08575896277344 Q 42.02913471699219 35.08575896277344 41.89574719699219 35.011770572773436 Q 41.76235967699219 34.93778218277344 41.68628710699219 34.802310482773436 Q 41.61021453699219 34.66683878277344 41.61021453699219 34.48968348277344 Q 41.61021453699219 34.312528182773434 41.68837128699219 34.17705648277344 Q 41.766528036992185 34.04158478277344 41.90199973699219 33.96759639277344 Q 42.037471436992185 33.89360800277344 42.20420583699219 33.89360800277344 Q 42.37094023699219 33.89360800277344 42.50641193699219 33.96759639277344 Q 42.64188363699219 34.04158478277344 42.72004038699219 34.17705648277344 Q 42.79819713699219 34.312528182773434 42.79819713699219 34.48968348277344 Q 42.79819713699219 34.66683878277344 42.717956206992184 34.802310482773436 Q 42.63771527699219 34.93778218277344 42.50120148699219 35.011770572773436 Q 42.364687696992185 35.08575896277344 42.195869116992185 35.08575896277344 Z M 42.195869116992185 34.83148900277344 Q 42.27506795699219 34.83148900277344 42.34488798699219 34.792931672773435 Q 42.414708016992186 34.75437434277344 42.456391616992185 34.67725968277344 Q 42.498075216992184 34.60014502277344 42.498075216992184 34.48968348277344 Q 42.498075216992184 34.32503326277344 42.41158174699219 34.23645561277344 Q 42.32508827699219 34.147877962773435 42.200037476992186 34.147877962773435 Q 42.07498667699219 34.147877962773435 41.990577386992186 34.23645561277344 Q 41.90616809699219 34.32503326277344 41.90616809699219 34.48968348277344 Q 41.90616809699219 34.654333702773435 41.98849320699219 34.74291135277344 Q 42.07081831699219 34.83148900277344 42.195869116992185 34.83148900277344 Z M 43.20364095276367 34.091605102773435 Q 43.25991381276367 33.999901182773435 43.35057564276367 33.947796682773436 Q 43.441237472763675 33.89569218277344 43.55795155276367 33.89569218277344 L 43.55795155276367 34.20206664277344 L 43.48083689276367 34.20206664277344 Q 43.34328101276367 34.20206664277344 43.27346098276367 34.26667622277344 Q 43.20364095276367 34.331285802773436 43.20364095276367 34.49176766277344 L 43.20364095276367 35.06700134277344 L 42.91185575276367 35.06700134277344 L 42.91185575276367 33.912365622773436 L 43.20364095276367 33.912365622773436 L 43.20364095276367 34.091605102773435 Z M 44.106378977314456 33.89360800277344 Q 44.235598137314454 33.89360800277344 44.33355459731445 33.94467041277344 Q 44.43151105731445 33.99573282277344 44.48778391731445 34.077015842773434 L 44.48778391731445 33.912365622773436 L 44.781653297314456 33.912365622773436 L 44.781653297314456 35.07533806277344 Q 44.781653297314456 35.23581992277344 44.71704371731445 35.36191281277344 Q 44.65243413731445 35.488005702773435 44.52321497731445 35.56199409277344 Q 44.393995817314455 35.635982482773436 44.210587977314454 35.635982482773436 Q 43.964654737314454 35.635982482773436 43.80729914731445 35.52135258277344 Q 43.64994355731445 35.406722682773434 43.62910175731445 35.20872558277344 L 43.918802777314454 35.20872558277344 Q 43.94172875731445 35.287924422773436 44.01780132731445 35.334818472773435 Q 44.09387389731445 35.38171252277344 44.20225125731445 35.38171252277344 Q 44.32938623731445 35.38171252277344 44.408585077314456 35.30563995277344 Q 44.48778391731445 35.22956738277344 44.48778391731445 35.07533806277344 L 44.48778391731445 34.89609858277344 Q 44.43151105731445 34.977381602773434 44.332512507314455 35.03157028277344 Q 44.23351395731445 35.08575896277344 44.106378977314456 35.08575896277344 Q 43.96048637731445 35.08575896277344 43.83960393731445 35.01072848277344 Q 43.718721497314455 34.935698002773435 43.64890146731445 34.79918421277344 Q 43.57908143731445 34.66267042277344 43.57908143731445 34.485515122773435 Q 43.57908143731445 34.31044400277344 43.64890146731445 34.17497230277344 Q 43.718721497314455 34.03950060277344 43.83856184731445 33.96655430277344 Q 43.958402197314456 33.89360800277344 44.106378977314456 33.89360800277344 Z M 44.48778391731445 34.48968348277344 Q 44.48778391731445 34.383390302773435 44.44610031731445 34.307317732773434 Q 44.404416717314454 34.23124516277344 44.33355459731445 34.19060365277344 Q 44.26269247731445 34.14996214277344 44.18140945731445 34.14996214277344 Q 44.10012643731445 34.14996214277344 44.031348497314454 34.189561562773434 Q 43.96257055731445 34.229160982773436 43.91984486731445 34.30523355277344 Q 43.877119177314455 34.38130612277344 43.877119177314455 34.485515122773435 Q 43.877119177314455 34.58972412277344 43.91984486731445 34.66788087277344 Q 43.96257055731445 34.746037622773436 44.03239058731445 34.787721222773435 Q 44.102210617314455 34.82940482277344 44.18140945731445 34.82940482277344 Q 44.26269247731445 34.82940482277344 44.33355459731445 34.78876331277344 Q 44.404416717314454 34.74812180277344 44.44610031731445 34.67204923277344 Q 44.48778391731445 34.59597666277344 44.48778391731445 34.48968348277344 Z M 45.617745828291014 33.89569218277344 Q 45.749049168291016 33.89569218277344 45.851173988291016 33.953007132773436 Q 45.95329880829102 34.010322082773435 46.010613758291015 34.121825712773436 Q 46.067928708291014 34.23332934277344 46.067928708291014 34.38964284277344 L 46.067928708291014 35.06700134277344 L 45.776143508291014 35.06700134277344 L 45.776143508291014 34.429242262773435 Q 45.776143508291014 34.291686382773435 45.70736556829102 34.21769799277344 Q 45.63858762829101 34.143709602773434 45.519789368291015 34.143709602773434 Q 45.39890692829101 34.143709602773434 45.32908689829102 34.21769799277344 Q 45.259266868291014 34.291686382773435 45.259266868291014 34.429242262773435 L 45.259266868291014 35.06700134277344 L 44.967481668291015 35.06700134277344 L 44.967481668291015 33.524708142773434 L 45.259266868291014 33.524708142773434 L 45.259266868291014 34.056174042773435 Q 45.315539728291014 33.98114356277344 45.40932782829102 33.938417872773435 Q 45.50311592829102 33.89569218277344 45.617745828291014 33.89569218277344 Z M 47.318170488896484 34.464673322773436 Q 47.318170488896484 34.527198722773434 47.30983376889648 34.577219042773436 L 46.46574086889648 34.577219042773436 Q 46.47616176889648 34.70226984277344 46.55327642889648 34.77313196277344 Q 46.63039108889649 34.843994082773435 46.74293680889649 34.843994082773435 Q 46.90550284889648 34.843994082773435 46.974280788896486 34.70435402277344 L 47.28899196889648 34.70435402277344 Q 47.23897164889648 34.87108842277344 47.097247408896486 34.97842369277344 Q 46.955523168896484 35.08575896277344 46.749189348896486 35.08575896277344 Q 46.58245494889648 35.08575896277344 46.45010951889648 35.011770572773436 Q 46.31776408889648 34.93778218277344 46.243775698896485 34.802310482773436 Q 46.16978730889648 34.66683878277344 46.16978730889648 34.48968348277344 Q 46.16978730889648 34.31044400277344 46.242733608896486 34.17497230277344 Q 46.315679908896485 34.03950060277344 46.44698324889649 33.96655430277344 Q 46.57828658889648 33.89360800277344 46.749189348896486 33.89360800277344 Q 46.913839568896485 33.89360800277344 47.04410081889648 33.964470122773434 Q 47.174362068896485 34.035332242773435 47.246266278896485 34.16559349277344 Q 47.318170488896484 34.295854742773436 47.318170488896484 34.464673322773436 Z M 47.015964388896485 34.38130612277344 Q 47.01388020889648 34.26876040277344 46.934681368896484 34.20102455277344 Q 46.85548252889649 34.133288702773434 46.740852628896484 34.133288702773434 Q 46.632475268896485 34.133288702773434 46.55848687889648 34.198940372773436 Q 46.484498488896485 34.26459204277344 46.467825048896486 34.38130612277344 Z M 47.55948845646484 35.08159060277344 Q 47.480289616464844 35.08159060277344 47.429227206464844 35.032612372773436 Q 47.378164796464844 34.98363414277344 47.378164796464844 34.910687842773434 Q 47.378164796464844 34.837741542773436 47.429227206464844 34.78876331277344 Q 47.480289616464844 34.73978508277344 47.55948845646484 34.73978508277344 Q 47.63660311646484 34.73978508277344 47.68662343646484 34.78876331277344 Q 47.736643756464844 34.837741542773436 47.736643756464844 34.910687842773434 Q 47.736643756464844 34.98363414277344 47.68662343646484 35.032612372773436 Q 47.63660311646484 35.08159060277344 47.55948845646484 35.08159060277344 Z M 48.21138544237305 34.15204632277344 L 48.21138544237305 34.710606562773435 Q 48.21138544237305 34.76896360277344 48.23952187237305 34.79501585277344 Q 48.26765830237305 34.82106810277344 48.33435206237305 34.82106810277344 L 48.469823762373046 34.82106810277344 L 48.469823762373046 35.06700134277344 L 48.286415922373045 35.06700134277344 Q 47.917516062373046 35.06700134277344 47.917516062373046 34.70852238277344 L 47.917516062373046 34.15204632277344 L 47.779960182373046 34.15204632277344 L 47.779960182373046 33.912365622773436 L 47.917516062373046 33.912365622773436 L 47.917516062373046 33.626832962773435 L 48.21138544237305 33.626832962773435 L 48.21138544237305 33.912365622773436 L 48.469823762373046 33.912365622773436 L 48.469823762373046 34.15204632277344 Z M 48.50466050835937 34.485515122773435 Q 48.50466050835937 34.31044400277344 48.574480538359374 34.17497230277344 Q 48.64430056835938 34.03950060277344 48.764140918359374 33.96655430277344 Q 48.88398126835938 33.89360800277344 49.03195804835938 33.89360800277344 Q 49.161177208359376 33.89360800277344 49.25809157835938 33.94571250277344 Q 49.35500594835938 33.99781700277344 49.413362988359374 34.077015842773434 L 49.413362988359374 33.912365622773436 L 49.70723236835938 33.912365622773436 L 49.70723236835938 35.06700134277344 L 49.413362988359374 35.06700134277344 L 49.413362988359374 34.89818276277344 Q 49.357090128359374 34.97946578277344 49.25809157835938 35.032612372773436 Q 49.15909302835937 35.08575896277344 49.029873868359374 35.08575896277344 Q 48.88398126835938 35.08575896277344 48.764140918359374 35.01072848277344 Q 48.64430056835938 34.935698002773435 48.574480538359374 34.79918421277344 Q 48.50466050835937 34.66267042277344 48.50466050835937 34.485515122773435 Z M 49.413362988359374 34.48968348277344 Q 49.413362988359374 34.383390302773435 49.371679388359375 34.307317732773434 Q 49.329995788359376 34.23124516277344 49.259133668359375 34.19060365277344 Q 49.188271548359374 34.14996214277344 49.10698852835937 34.14996214277344 Q 49.02570550835937 34.14996214277344 48.956927568359376 34.189561562773434 Q 48.88814962835937 34.229160982773436 48.845423938359374 34.30523355277344 Q 48.80269824835938 34.38130612277344 48.80269824835938 34.485515122773435 Q 48.80269824835938 34.58972412277344 48.845423938359374 34.66788087277344 Q 48.88814962835937 34.746037622773436 48.957969658359374 34.787721222773435 Q 49.02778968835938 34.82940482277344 49.10698852835937 34.82940482277344 Q 49.188271548359374 34.82940482277344 49.259133668359375 34.78876331277344 Q 49.329995788359376 34.74812180277344 49.371679388359375 34.67204923277344 Q 49.413362988359374 34.59597666277344 49.413362988359374 34.48968348277344 Z M 50.184845939335936 34.091605102773435 Q 50.241118799335936 33.999901182773435 50.33178062933594 33.947796682773436 Q 50.42244245933594 33.89569218277344 50.539156539335934 33.89569218277344 L 50.539156539335934 34.20206664277344 L 50.462041879335935 34.20206664277344 Q 50.324485999335934 34.20206664277344 50.25466596933594 34.26667622277344 Q 50.184845939335936 34.331285802773436 50.184845939335936 34.49176766277344 L 50.184845939335936 35.06700134277344 L 49.89306073933594 35.06700134277344 L 49.89306073933594 33.912365622773436 L 50.184845939335936 33.912365622773436 L 50.184845939335936 34.091605102773435 Z M 50.55848588677734 34.48968348277344 Q 50.55848588677734 34.31044400277344 50.631432186777346 34.17601439277344 Q 50.704378486777344 34.04158478277344 50.83359764677734 33.96759639277344 Q 50.96281680677735 33.89360800277344 51.12955120677734 33.89360800277344 Q 51.34422174677734 33.89360800277344 51.48490389677735 34.00094327277344 Q 51.62558604677734 34.10827854277344 51.67352218677734 34.302107282773434 L 51.358811006777344 34.302107282773434 Q 51.33380084677734 34.22707680277344 51.27440171677734 34.184351112773435 Q 51.215002586777345 34.14162542277344 51.127467026777346 34.14162542277344 Q 51.00241622677734 34.14162542277344 50.929469926777344 34.23228725277344 Q 50.856523626777346 34.32294908277344 50.856523626777346 34.48968348277344 Q 50.856523626777346 34.654333702773435 50.929469926777344 34.74499553277344 Q 51.00241622677734 34.83565736277344 51.127467026777346 34.83565736277344 Q 51.30462232677734 34.83565736277344 51.358811006777344 34.67725968277344 L 51.67352218677734 34.67725968277344 Q 51.62558604677734 34.864835882773434 51.48386180677734 34.97529742277344 Q 51.342137566777346 35.08575896277344 51.12955120677734 35.08575896277344 Q 50.96281680677735 35.08575896277344 50.83359764677734 35.011770572773436 Q 50.704378486777344 34.93778218277344 50.631432186777346 34.803352572773434 Q 50.55848588677734 34.668922962773436 50.55848588677734 34.48968348277344 Z M 52.861696184697266 34.464673322773436 Q 52.861696184697266 34.527198722773434 52.85335946469726 34.577219042773436 L 52.00926656469726 34.577219042773436 Q 52.01968746469726 34.70226984277344 52.09680212469726 34.77313196277344 Q 52.17391678469727 34.843994082773435 52.28646250469727 34.843994082773435 Q 52.44902854469726 34.843994082773435 52.51780648469727 34.70435402277344 L 52.832517664697264 34.70435402277344 Q 52.78249734469726 34.87108842277344 52.64077310469727 34.97842369277344 Q 52.499048864697265 35.08575896277344 52.29271504469727 35.08575896277344 Q 52.125980644697265 35.08575896277344 51.993635214697264 35.011770572773436 Q 51.86128978469726 34.93778218277344 51.787301394697266 34.802310482773436 Q 51.71331300469726 34.66683878277344 51.71331300469726 34.48968348277344 Q 51.71331300469726 34.31044400277344 51.78625930469727 34.17497230277344 Q 51.859205604697266 34.03950060277344 51.99050894469727 33.96655430277344 Q 52.12181228469726 33.89360800277344 52.29271504469727 33.89360800277344 Q 52.457365264697266 33.89360800277344 52.58762651469726 33.964470122773434 Q 52.71788776469727 34.035332242773435 52.789791974697266 34.16559349277344 Q 52.861696184697266 34.295854742773436 52.861696184697266 34.464673322773436 Z M 52.559490084697266 34.38130612277344 Q 52.55740590469726 34.26876040277344 52.478207064697266 34.20102455277344 Q 52.39900822469727 34.133288702773434 52.284378324697265 34.133288702773434 Q 52.176000964697266 34.133288702773434 52.10201257469726 34.198940372773436 Q 52.028024184697266 34.26459204277344 52.01135074469727 34.38130612277344 Z M 52.89876832696289 34.485515122773435 Q 52.89876832696289 34.31044400277344 52.96858835696289 34.17497230277344 Q 53.03840838696289 34.03950060277344 53.15824873696289 33.96655430277344 Q 53.27808908696289 33.89360800277344 53.426065866962894 33.89360800277344 Q 53.55528502696289 33.89360800277344 53.65219939696289 33.94571250277344 Q 53.74911376696289 33.99781700277344 53.80747080696289 34.077015842773434 L 53.80747080696289 33.912365622773436 L 54.101340186962894 33.912365622773436 L 54.101340186962894 35.06700134277344 L 53.80747080696289 35.06700134277344 L 53.80747080696289 34.89818276277344 Q 53.75119794696289 34.97946578277344 53.65219939696289 35.032612372773436 Q 53.55320084696289 35.08575896277344 53.42398168696289 35.08575896277344 Q 53.27808908696289 35.08575896277344 53.15824873696289 35.01072848277344 Q 53.03840838696289 34.935698002773435 52.96858835696289 34.79918421277344 Q 52.89876832696289 34.66267042277344 52.89876832696289 34.485515122773435 Z M 53.80747080696289 34.48968348277344 Q 53.80747080696289 34.383390302773435 53.76578720696289 34.307317732773434 Q 53.72410360696289 34.23124516277344 53.65324148696289 34.19060365277344 Q 53.58237936696289 34.14996214277344 53.50109634696289 34.14996214277344 Q 53.41981332696289 34.14996214277344 53.35103538696289 34.189561562773434 Q 53.28225744696289 34.229160982773436 53.23953175696289 34.30523355277344 Q 53.19680606696289 34.38130612277344 53.19680606696289 34.485515122773435 Q 53.19680606696289 34.58972412277344 53.23953175696289 34.66788087277344 Q 53.28225744696289 34.746037622773436 53.35207747696289 34.787721222773435 Q 53.42189750696289 34.82940482277344 53.50109634696289 34.82940482277344 Q 53.58237936696289 34.82940482277344 53.65324148696289 34.78876331277344 Q 53.72410360696289 34.74812180277344 53.76578720696289 34.67204923277344 Q 53.80747080696289 34.59597666277344 53.80747080696289 34.48968348277344 Z" transform="matrix(9.172045707702637, 0, 0, 8.15670108795166, -326.764892578125, -274.72271728515625)" style="fill: rgb(255, 255, 255); line-height: 3.727px; paint-order: fill; text-transform: lowercase; white-space: pre;"/>
  </g>
</svg>